{"title":"Attila (1954)  Anthony Quinn &amp; Sofia Loren It","uid":5403990,"size":631552546,"categoryP":"video","categoryS":"movies","magnet":"?xt=urn:btih:04df2ab4137f5d640e0fc1d72915b08e03aa2ff4&amp;dn=Attila+%281954%29++Anthony+Quinn+%26+Sofia+Loren+It&amp;tr=udp%3A%2F%2Ftracker.openbittorrent.com%3A80&amp;tr=udp%3A%2F%2Fopen.demonii.com%3A1337&amp;tr=udp%3A%2F%2Ftracker.coppersurfer.tk%3A6969&amp;tr=udp%3A%2F%2Fexodus.desync.com%3A6969","seeders":3,"leechers":0,"uploader":"johnefp","files":3,"time":1267530082,"description":"Italian director Pietro Francisci directed this 1954 drama about the fifth-century invasion of Rome by Attila the Hun. Anthony Quinn stars as the legendary barbaric King of the Huns who wreaked havoc upon Rome, threatening to topple the entire empire. Sophia Loren costars as Honoria, the beautiful young woman whose help is enlisted by Pope Leo I and may be the only person who can end Attila's rampage. Also starring Henri Vidal and Irene Papas, Attila, il flagello di Dio was released in the United States as Attila. \n\n\n &lt;a href=&quot;\nhttp://www.imdb.com/title/tt0046731/&quot; rel=&quot;nofollow&quot; target=&quot;_NEW&quot;&gt;\nhttp://www.imdb.com/title/tt0046731/&lt;/a&gt;\n\n\n\nDirector:\nPietro Francisci\n\n\n\n\n\n\tAnthony Quinn\t... \tAttila\n\n\tSophia Loren\t... \tHonoria\n\tHenri Vidal\t... \tAetius\n\tClaude Laydu\t... \tValentiniano Caesar\n\tIrene Papas\t... \tGrune\n\n\n\n\nVideo #2\n      ID : 2\n      Format : VC-1\n      Format profile : MP@ML\n      Codec ID : WMV3\n      Codec ID/Info : Windows Media Video 9\n      Codec ID/Hint : WMV3\n      Duration : 1h 15mn\n      Bit rate mode : Variable\n      Bit rate : 1 000 Kbps\n      Width : 640 pixels\n      Height : 480 pixels\n      Display aspect ratio : 4/3\n      Frame rate : 25.000 fps\n      Resolution : 24 bits\n      Scan type : Progressive\n      Bits/(Pixel*Frame) : 0.130\n      Stream size : 543 MiB (90%)\n   Audio #1\n      ID : 1\n      Format : WMA2\n      Format profile : L\n      Codec ID : 161\n      Codec ID/Info : Windows Media Audio 2\n      Description of the codec : Windows Media Audio 9.2 -  96 kbps, 44 kHz, stereo 2-pass VBR\n      Duration : 1h 15mn\n      Bit rate mode : Variable\n      Bit rate : 96.0 Kbps\n      Channel(s) : 2 channels\n      Sampling rate : 44.1 KHz\n      Resolution : 16 bits\n      Stream size : 52.1 MiB (9%)\n\nPlease seed at least as much as you D/L.\n=======================================\nThanks \n\nJohn","torrent":{"xt":"urn:btih:04df2ab4137f5d640e0fc1d72915b08e03aa2ff4","amp;dn":"Attila+%281954%29++Anthony+Quinn+%26+Sofia+Loren+It","amp;tr":["udp%3A%2F%2Ftracker.openbittorrent.com%3A80","udp%3A%2F%2Fopen.demonii.com%3A1337","udp%3A%2F%2Ftracker.coppersurfer.tk%3A6969","udp%3A%2F%2Fexodus.desync.com%3A6969"],"infoHash":"04df2ab4137f5d640e0fc1d72915b08e03aa2ff4","infoHashBuffer":{"type":"Buffer","data":[4,223,42,180,19,127,93,100,14,15,193,215,41,21,176,142,3,170,47,244]},"announce":[],"urlList":[]}}